<svg width="24" height="24" viewBox="0 0 24 24" fill="none" xmlns="http://www.w3.org/2000/svg">
<g clip-path="url(#clip0_40_1548)">
<path d="M17.981 0H6C2.70476 0 0 2.70476 0 6.01905V18C0 21.2952 2.70476 24 6 24H17.981C21.2952 24 24 21.2952 24 17.981V6.01905C24 2.70476 21.2952 0 17.981 0Z" fill="white"/>
<path d="M11.0038 14.3243C10.6259 16.3066 10.1643 18.2072 8.7966 19.2C8.37455 16.2036 9.4166 13.9534 9.90022 11.5644C9.07525 10.1751 9.99948 7.37945 11.7397 8.06851C13.8809 8.91563 9.8856 13.2331 12.5678 13.7722C15.3683 14.335 16.5113 8.91197 14.775 7.14855C12.2658 4.60184 7.47113 7.09033 8.06076 10.7364C8.20416 11.6277 9.12502 11.8983 8.42882 13.1282C6.82273 12.7721 6.3436 11.5054 6.40518 9.81647C6.50444 7.0518 8.88855 5.11624 11.28 4.84849C14.304 4.50987 17.1422 5.95886 17.5342 8.80454C17.9757 12.0161 16.1691 15.4943 12.9355 15.2443C12.0588 15.1762 11.691 14.7417 11.0038 14.3243Z" fill="#117BD4"/>
</g>
<defs>
<clipPath id="clip0_40_1548">
<rect width="24" height="24" fill="white"/>
</clipPath>
</defs>
</svg>
